<?xml version="1.0" encoding="UTF-8" standalone="no"?>
<!-- Created with Inkscape (http://www.inkscape.org/) -->

<svg
   xmlns:dc="http://purl.org/dc/elements/1.1/"
   xmlns:cc="http://creativecommons.org/ns#"
   xmlns:rdf="http://www.w3.org/1999/02/22-rdf-syntax-ns#"
   xmlns:svg="http://www.w3.org/2000/svg"
   xmlns="http://www.w3.org/2000/svg"
   xmlns:xlink="http://www.w3.org/1999/xlink"
   xmlns:sodipodi="http://sodipodi.sourceforge.net/DTD/sodipodi-0.dtd"
   xmlns:inkscape="http://www.inkscape.org/namespaces/inkscape"
   width="94.78196mm"
   height="87.390076mm"
   viewBox="0 0 335.84159 309.64987"
   id="svg2"
   version="1.1"
   inkscape:version="0.91 r13725"
   sodipodi:docname="buzz.svg"
   inkscape:export-filename="/Users/pincy/Fabrica/MIST/buzz/buzz.png"
   inkscape:export-xdpi="90"
   inkscape:export-ydpi="90">
  <defs
     id="defs4" />
  <sodipodi:namedview
     id="base"
     pagecolor="#ffffff"
     bordercolor="#666666"
     borderopacity="1.0"
     inkscape:pageopacity="0"
     inkscape:pageshadow="2"
     inkscape:zoom="1"
     inkscape:cx="298.10233"
     inkscape:cy="195.93501"
     inkscape:document-units="px"
     inkscape:current-layer="buzzlogo"
     showgrid="false"
     inkscape:window-width="1280"
     inkscape:window-height="719"
     inkscape:window-x="0"
     inkscape:window-y="0"
     inkscape:window-maximized="1"
     fit-margin-top="0"
     fit-margin-left="0"
     fit-margin-right="0"
     fit-margin-bottom="0" />
  <metadata
     id="metadata7">
    <rdf:RDF>
      <cc:Work
         rdf:about="">
        <dc:format>image/svg+xml</dc:format>
        <dc:type
           rdf:resource="http://purl.org/dc/dcmitype/StillImage" />
        <dc:title />
      </cc:Work>
    </rdf:RDF>
  </metadata>
  <g
     inkscape:label="Layer 1"
     inkscape:groupmode="layer"
     id="layer1"
     transform="translate(892.44364,-322.40761)">
    <g
       id="buzzlogo">
      <g
         transform="matrix(0.36476966,0,0,0.36476966,-961.33553,307.18628)"
         id="bee">
        <rect
           style="fill:#ffcc00;fill-opacity:1;fill-rule:evenodd;stroke:none;stroke-width:1px;stroke-linecap:butt;stroke-linejoin:miter;stroke-opacity:1"
           id="rect3336"
           width="100"
           height="90"
           x="240"
           y="412.36221" />
        <rect
           style="fill:#000000;fill-opacity:1;stroke:none"
           id="rect4138"
           width="100"
           height="30"
           x="240"
           y="442.36221" />
        <path
           style="fill:#000000;fill-opacity:1;stroke:none"
           d="m 240,502.36133 c -5.2e-4,17.8638 9.52949,34.37083 25,43.30273 4.48685,2.56738 9.3447,4.42342 14.40039,5.50196 L 290,567.45227 300.55469,551.21094 c 5.07377,-1.08817 9.94722,-2.95953 14.44531,-5.54688 15.47051,-8.9319 25.00052,-25.43893 25,-43.30273 l -50,0 z"
           id="path4140"
           inkscape:connector-curvature="0"
           sodipodi:nodetypes="ccccccccc" />
        <path
           inkscape:connector-curvature="0"
           style="fill:#000000;fill-opacity:1;stroke:none"
           d="m 270,342.36133 a 15,15 0 0 0 -15,15 15,15 0 0 0 7.76953,13.14062 A 50,50 0 0 0 240,412.36133 l 50,0 50,0 A 50,50 0 0 0 317.26367,370.4668 15,15 0 0 0 325,357.36133 a 15,15 0 0 0 -15,-15 15,15 0 0 0 -15,15 15,15 0 0 0 0.99805,5.37109 50,50 0 0 0 -12.03125,0.0566 15,15 0 0 0 1.0332,-5.42773 15,15 0 0 0 -15,-15 z"
           id="path4142" />
        <path
           inkscape:connector-curvature="0"
           style="fill:#ffffff;fill-opacity:1;stroke:#000000;stroke-width:2.2718811;stroke-miterlimit:4;stroke-dasharray:none;stroke-opacity:1"
           d="m 240.05859,411.80078 -46.22265,77.23828 0.0391,0.0117 a 25,25 0 0 0 -3.875,13.31055 25,25 0 0 0 25,25 25,25 0 0 0 25,-25 25,25 0 0 0 -0.006,-0.17188 l 0.0645,0.0176 0,-90.40625 z"
           id="path4161" />
        <path
           id="path4166"
           d="m 340,411.80078 46.22265,77.23828 -0.0391,0.0117 a 25,25 0 0 1 3.875,13.31055 25,25 0 0 1 -25,25 25,25 0 0 1 -25,-25 25,25 0 0 1 0.006,-0.17188 l -0.0644,0.0176 0,-90.40625 z"
           style="fill:#ffffff;fill-opacity:1;stroke:#000000;stroke-width:2.2718811;stroke-miterlimit:4;stroke-dasharray:none;stroke-opacity:1"
           inkscape:connector-curvature="0" />
      </g>
      <text
         sodipodi:linespacing="125%"
         id="text4149"
         y="500.28403"
         x="-720.44971"
         style="font-style:normal;font-weight:normal;font-size:32.36293793px;line-height:125%;font-family:sans-serif;letter-spacing:0px;word-spacing:0px;fill:#000000;fill-opacity:1;stroke:none;stroke-width:1px;stroke-linecap:butt;stroke-linejoin:miter;stroke-opacity:1"
         xml:space="preserve"><tspan
           style="font-style:normal;font-variant:normal;font-weight:normal;font-stretch:normal;font-size:64.72587585px;line-height:125%;font-family:'Ubuntu Mono';-inkscape-font-specification:'Ubuntu Mono, Normal';text-align:center;writing-mode:lr-tb;text-anchor:middle"
           y="500.28403"
           x="-720.44971"
           id="tspan4151"
           sodipodi:role="line">buzz()</tspan></text>
      <use
         height="100%"
         width="100%"
         transform="matrix(1,0,0,-1,262.03761,946.24494)"
         id="use4238"
         xlink:href="#bee"
         y="0"
         x="0" />
      <use
         height="100%"
         width="100%"
         transform="matrix(0.5316624,0.84695636,-0.84695636,0.5316624,65.792614,836.93274)"
         id="use4240"
         xlink:href="#bee"
         y="0"
         x="0" />
      <use
         height="100%"
         width="100%"
         transform="matrix(1,0,0,-1,132.93608,728.19093)"
         id="use4242"
         xlink:href="#use4240"
         y="0"
         x="0" />
      <use
         height="100%"
         width="100%"
         transform="matrix(-1,0,0,1,-1578.1741,226.27417)"
         id="use4244"
         xlink:href="#use4240"
         y="0"
         x="0" />
      <use
         height="100%"
         width="100%"
         transform="matrix(1,0,0,-1,129.40054,1180.0322)"
         id="use4246"
         xlink:href="#use4244"
         y="0"
         x="0" />
      <text
         xml:space="preserve"
         style="font-style:normal;font-weight:normal;font-size:36.00997543px;line-height:125%;font-family:sans-serif;letter-spacing:0px;word-spacing:0px;fill:#000000;fill-opacity:1;stroke:none;stroke-width:1px;stroke-linecap:butt;stroke-linejoin:miter;stroke-opacity:1"
         x="-404.20294"
         y="408.91534"
         id="text4158"
         sodipodi:linespacing="125%"
         inkscape:export-xdpi="90"
         inkscape:export-ydpi="90"><tspan
           sodipodi:role="line"
           id="tspan4160"
           x="-404.20294"
           y="408.91534"
           style="font-style:normal;font-variant:normal;font-weight:normal;font-stretch:normal;font-size:72.01995087px;line-height:125%;font-family:'Ubuntu Mono';-inkscape-font-specification:'Ubuntu Mono, Normal';text-align:center;writing-mode:lr-tb;text-anchor:middle">buzz( )</tspan></text>
      <use
         x="0"
         y="0"
         xlink:href="#bee"
         id="use4162"
         transform="matrix(0.76722052,0,0,0.76722052,323.29614,27.943246)"
         width="100%"
         height="100%"
         inkscape:export-xdpi="90"
         inkscape:export-ydpi="90" />
    </g>
  </g>
</svg>
